<svg width="1800" height="620" viewBox="0 0 1800 620" fill="none" xmlns="http://www.w3.org/2000/svg">
  <defs>
    <linearGradient id="mist" x1="900" y1="80" x2="900" y2="590" gradientUnits="userSpaceOnUse">
      <stop offset="0" stop-color="white" stop-opacity="0.35"/>
      <stop offset="0.5" stop-color="white" stop-opacity="0.75"/>
      <stop offset="1" stop-color="white" stop-opacity="0.95"/>
    </linearGradient>
    <filter id="soft" x="-8%" y="-8%" width="116%" height="116%" color-interpolation-filters="sRGB">
      <feGaussianBlur stdDeviation="18"/>
    </filter>
  </defs>

  <g filter="url(#soft)">
    <path d="M0 268C116 206 229 310 370 250C533 178 680 294 846 234C1010 176 1172 280 1328 230C1476 182 1638 234 1800 198V620H0V268Z" fill="url(#mist)"/>
    <path d="M0 346C132 292 286 364 452 320C626 274 792 368 968 320C1134 274 1308 360 1452 326C1580 296 1692 314 1800 296V620H0V346Z" fill="url(#mist)" fill-opacity="0.82"/>
    <path d="M0 412C170 376 348 440 532 408C728 374 924 452 1112 418C1268 392 1424 430 1574 422C1672 416 1742 410 1800 404V620H0V412Z" fill="url(#mist)" fill-opacity="0.68"/>
  </g>
</svg>
